<svg width="20" height="18" viewBox="0 0 20 18" fill="none" xmlns="http://www.w3.org/2000/svg">
<path fill-rule="evenodd" clip-rule="evenodd" d="M0.606934 0.642857C0.606934 0.472361 0.674663 0.308848 0.795222 0.188289C0.915781 0.0677295 1.07929 0 1.24979 0H3.17836C3.32176 3.96148e-05 3.46103 0.0480223 3.57402 0.136318C3.68701 0.224613 3.76723 0.348151 3.80193 0.487286L4.32265 2.57143H19.2498C19.3474 2.57146 19.4438 2.59373 19.5316 2.63655C19.6193 2.67938 19.6962 2.74164 19.7563 2.81859C19.8164 2.89555 19.8581 2.98519 19.8784 3.08071C19.8987 3.17623 19.897 3.27511 19.8734 3.36986L17.9448 11.0841C17.9101 11.2233 17.8299 11.3468 17.7169 11.4351C17.6039 11.5234 17.4646 11.5714 17.3212 11.5714H5.74979C5.60639 11.5714 5.46713 11.5234 5.35414 11.4351C5.24115 11.3468 5.16092 11.2233 5.12622 11.0841L2.67693 1.28571H1.24979C1.07929 1.28571 0.915781 1.21798 0.795222 1.09743C0.674663 0.976867 0.606934 0.813353 0.606934 0.642857ZM4.64408 3.85714L6.25122 10.2857H16.8198L18.4269 3.85714H4.64408ZM7.0355 14.1429C6.69451 14.1429 6.36749 14.2783 6.12637 14.5194C5.88525 14.7606 5.74979 15.0876 5.74979 15.4286C5.74979 15.7696 5.88525 16.0966 6.12637 16.3377C6.36749 16.5788 6.69451 16.7143 7.0355 16.7143C7.3765 16.7143 7.70352 16.5788 7.94464 16.3377C8.18576 16.0966 8.32122 15.7696 8.32122 15.4286C8.32122 15.0876 8.18576 14.7606 7.94464 14.5194C7.70352 14.2783 7.3765 14.1429 7.0355 14.1429ZM4.46408 15.4286C4.46408 14.7466 4.73499 14.0925 5.21723 13.6103C5.69947 13.1281 6.35352 12.8571 7.0355 12.8571C7.71749 12.8571 8.37154 13.1281 8.85378 13.6103C9.33602 14.0925 9.60693 14.7466 9.60693 15.4286C9.60693 16.1106 9.33602 16.7646 8.85378 17.2468C8.37154 17.7291 7.71749 18 7.0355 18C6.35352 18 5.69947 17.7291 5.21723 17.2468C4.73499 16.7646 4.46408 16.1106 4.46408 15.4286ZM16.0355 14.1429C15.6945 14.1429 15.3675 14.2783 15.1264 14.5194C14.8852 14.7606 14.7498 15.0876 14.7498 15.4286C14.7498 15.7696 14.8852 16.0966 15.1264 16.3377C15.3675 16.5788 15.6945 16.7143 16.0355 16.7143C16.3765 16.7143 16.7035 16.5788 16.9446 16.3377C17.1858 16.0966 17.3212 15.7696 17.3212 15.4286C17.3212 15.0876 17.1858 14.7606 16.9446 14.5194C16.7035 14.2783 16.3765 14.1429 16.0355 14.1429ZM13.4641 15.4286C13.4641 14.7466 13.735 14.0925 14.2172 13.6103C14.6995 13.1281 15.3535 12.8571 16.0355 12.8571C16.7175 12.8571 17.3715 13.1281 17.8538 13.6103C18.336 14.0925 18.6069 14.7466 18.6069 15.4286C18.6069 16.1106 18.336 16.7646 17.8538 17.2468C17.3715 17.7291 16.7175 18 16.0355 18C15.3535 18 14.6995 17.7291 14.2172 17.2468C13.735 16.7646 13.4641 16.1106 13.4641 15.4286Z" fill="#242424"/>
</svg>
